<?xml version="1.0" encoding="UTF-8" standalone="yes"?>
<svg version="1.2" width="100%" viewBox="0 0 512 512" xml:space="preserve" baseProfile="tiny-ps" xmlns="http://www.w3.org/2000/svg">
  <title>bimi-svg-tiny-12-ps</title>
  <path fill="#47704C" stroke="none" d="&#xA;M513.000000,184.000000 &#xA;&#x9;C513.000000,293.973267 513.000000,403.446533 513.000000,512.959900 &#xA;&#x9;C342.401733,512.959900 171.803436,512.959900 1.102575,512.959900 &#xA;&#x9;C1.102575,342.443420 1.102575,171.886780 1.102575,1.165060 &#xA;&#x9;C171.666534,1.165060 342.333252,1.165060 513.000000,1.165060 &#xA;&#x9;C513.000000,61.863194 513.000000,122.681595 513.000000,184.000000 &#xA;M41.000000,256.488098 &#xA;&#x9;C41.333313,261.933929 41.434906,267.406128 42.050846,272.819794 &#xA;&#x9;C43.146896,282.453278 44.002960,292.163971 45.939472,301.642151 &#xA;&#x9;C50.863110,325.740631 59.677059,348.392395 72.702034,369.343750 &#xA;&#x9;C86.791656,392.007721 103.973709,411.870789 125.259308,428.112488 &#xA;&#x9;C139.899979,439.283936 155.618408,448.582367 172.547760,455.793457 &#xA;&#x9;C192.526062,464.303223 213.407791,469.769623 234.960464,471.788727 &#xA;&#x9;C247.244934,472.939606 259.726746,472.128296 272.116852,471.972626 &#xA;&#x9;C289.580811,471.753265 306.420135,467.728333 322.904602,462.453583 &#xA;&#x9;C347.454041,454.598175 369.912811,442.713013 390.128754,426.537933 &#xA;&#x9;C411.914581,409.106781 430.435822,388.807068 444.055389,364.486237 &#xA;&#x9;C464.467834,328.035126 474.926025,289.157471 472.221008,246.886124 &#xA;&#x9;C470.882263,225.965942 467.268311,205.776123 460.531830,186.013168 &#xA;&#x9;C449.894165,154.804962 432.631683,127.701942 409.474945,104.427742 &#xA;&#x9;C388.747375,83.595055 364.686829,67.575882 337.296539,56.663811 &#xA;&#x9;C312.380859,46.737610 286.515045,41.263077 259.737488,41.174885 &#xA;&#x9;C247.572098,41.134815 235.350067,42.570312 223.242798,44.060246 &#xA;&#x9;C201.966614,46.678520 181.775070,53.359299 162.649658,62.837440 &#xA;&#x9;C138.196823,74.955742 116.394707,90.666306 98.057953,111.231651 &#xA;&#x9;C82.539574,128.636093 69.573051,147.447571 59.988804,168.748764 &#xA;&#x9;C47.551754,196.390396 41.307480,225.264786 41.000000,256.488098 &#xA;z"/>
  <path fill="#000000" stroke="none" d="&#xA;M41.000000,255.994049 &#xA;&#x9;C41.307480,225.264786 47.551754,196.390396 59.988804,168.748764 &#xA;&#x9;C69.573051,147.447571 82.539574,128.636093 98.057953,111.231651 &#xA;&#x9;C116.394707,90.666306 138.196823,74.955742 162.649658,62.837440 &#xA;&#x9;C181.775070,53.359299 201.966614,46.678520 223.242798,44.060246 &#xA;&#x9;C235.350067,42.570312 247.572098,41.134815 259.737488,41.174885 &#xA;&#x9;C286.515045,41.263077 312.380859,46.737610 337.296539,56.663811 &#xA;&#x9;C364.686829,67.575882 388.747375,83.595055 409.474945,104.427742 &#xA;&#x9;C432.631683,127.701942 449.894165,154.804962 460.531830,186.013168 &#xA;&#x9;C467.268311,205.776123 470.882263,225.965942 472.221008,246.886124 &#xA;&#x9;C474.926025,289.157471 464.467834,328.035126 444.055389,364.486237 &#xA;&#x9;C430.435822,388.807068 411.914581,409.106781 390.128754,426.537933 &#xA;&#x9;C369.912811,442.713013 347.454041,454.598175 322.904602,462.453583 &#xA;&#x9;C306.420135,467.728333 289.580811,471.753265 272.116852,471.972626 &#xA;&#x9;C259.726746,472.128296 247.244934,472.939606 234.960464,471.788727 &#xA;&#x9;C213.407791,469.769623 192.526062,464.303223 172.547760,455.793457 &#xA;&#x9;C155.618408,448.582367 139.899979,439.283936 125.259308,428.112488 &#xA;&#x9;C103.973709,411.870789 86.791656,392.007721 72.702034,369.343750 &#xA;&#x9;C59.677059,348.392395 50.863110,325.740631 45.939472,301.642151 &#xA;&#x9;C44.002960,292.163971 43.146896,282.453278 42.050846,272.819794 &#xA;&#x9;C41.434906,267.406128 41.333313,261.933929 41.000000,255.994049 &#xA;M405.500000,404.000000 &#xA;&#x9;C411.987854,396.703186 418.956573,389.773132 424.861084,382.031433 &#xA;&#x9;C436.322449,367.003754 445.203094,350.463104 452.116638,332.820374 &#xA;&#x9;C460.618835,311.123566 465.739594,288.771851 465.932434,265.437866 &#xA;&#x9;C466.010468,255.994736 466.141327,246.430847 464.817291,237.125519 &#xA;&#x9;C462.784821,222.841080 460.501678,208.452499 456.566925,194.607727 &#xA;&#x9;C448.415436,165.926025 433.374054,140.719681 413.753906,118.419647 &#xA;&#x9;C397.114136,99.507042 377.497894,84.035324 355.254944,72.131325 &#xA;&#x9;C329.790375,58.503201 302.466888,50.418709 273.766541,48.217827 &#xA;&#x9;C250.098862,46.402874 226.338623,47.966770 203.377441,54.455208 &#xA;&#x9;C164.975449,65.306969 131.635406,84.715889 104.148529,114.145653 &#xA;&#x9;C85.822464,133.767075 71.914703,155.986237 61.834953,180.643356 &#xA;&#x9;C54.260056,199.173141 49.184807,218.592438 48.244026,238.568878 &#xA;&#x9;C47.373383,257.056030 47.307987,275.626373 50.820095,294.093750 &#xA;&#x9;C54.450356,313.182373 60.048328,331.570984 68.641235,348.863983 &#xA;&#x9;C80.178596,372.082581 95.484627,392.551666 114.615028,410.362518 &#xA;&#x9;C136.390457,430.635925 161.141190,445.464478 189.137177,455.100250 &#xA;&#x9;C218.064301,465.056519 247.715820,468.278442 278.183472,465.107635 &#xA;&#x9;C294.987091,463.358917 311.243286,459.816772 327.153259,454.126923 &#xA;&#x9;C356.912170,443.484253 383.062622,427.335571 405.500000,404.000000 &#xA;z"/>
  <path fill="#47704C" stroke="none" d="&#xA;M405.250000,404.250000 &#xA;&#x9;C383.062622,427.335571 356.912170,443.484253 327.153259,454.126923 &#xA;&#x9;C311.243286,459.816772 294.987091,463.358917 278.183472,465.107635 &#xA;&#x9;C247.715820,468.278442 218.064301,465.056519 189.137177,455.100250 &#xA;&#x9;C161.141190,445.464478 136.390457,430.635925 114.615028,410.362518 &#xA;&#x9;C95.484627,392.551666 80.178596,372.082581 68.641235,348.863983 &#xA;&#x9;C60.048328,331.570984 54.450356,313.182373 50.820095,294.093750 &#xA;&#x9;C47.307987,275.626373 47.373383,257.056030 48.244026,238.568878 &#xA;&#x9;C49.184807,218.592438 54.260056,199.173141 61.834953,180.643356 &#xA;&#x9;C71.914703,155.986237 85.822464,133.767075 104.148529,114.145653 &#xA;&#x9;C131.635406,84.715889 164.975449,65.306969 203.377441,54.455208 &#xA;&#x9;C226.338623,47.966770 250.098862,46.402874 273.766541,48.217827 &#xA;&#x9;C302.466888,50.418709 329.790375,58.503201 355.254944,72.131325 &#xA;&#x9;C377.497894,84.035324 397.114136,99.507042 413.753906,118.419647 &#xA;&#x9;C433.374054,140.719681 448.415436,165.926025 456.566925,194.607727 &#xA;&#x9;C460.501678,208.452499 462.784821,222.841080 464.817291,237.125519 &#xA;&#x9;C466.141327,246.430847 466.010468,255.994736 465.932434,265.437866 &#xA;&#x9;C465.739594,288.771851 460.618835,311.123566 452.116638,332.820374 &#xA;&#x9;C445.203094,350.463104 436.322449,367.003754 424.861084,382.031433 &#xA;&#x9;C418.956573,389.773132 411.987854,396.703186 405.250000,404.250000 &#xA;M453.875641,288.116486 &#xA;&#x9;C454.583832,280.061310 455.662201,272.016510 455.889038,263.947815 &#xA;&#x9;C456.088531,256.850464 455.704407,249.685074 454.915985,242.623657 &#xA;&#x9;C453.731079,232.011215 452.611847,221.321289 450.315918,210.917816 &#xA;&#x9;C445.662415,189.831421 437.408508,170.058426 425.874329,151.778687 &#xA;&#x9;C414.418884,133.623672 400.702515,117.279060 384.025299,103.719322 &#xA;&#x9;C369.135010,91.612450 352.925690,81.558342 335.163147,73.947250 &#xA;&#x9;C314.189331,64.960197 292.355743,59.459343 269.720551,58.253929 &#xA;&#x9;C256.237183,57.535889 242.576218,58.835945 229.074753,60.087811 &#xA;&#x9;C209.705475,61.883732 191.393555,68.030052 173.838867,76.136559 &#xA;&#x9;C147.844742,88.140244 125.447189,104.987366 106.620781,126.727409 &#xA;&#x9;C92.300995,143.263351 81.123062,161.575607 72.708374,181.670303 &#xA;&#x9;C64.432518,201.433472 59.392708,222.089096 58.174019,243.389755 &#xA;&#x9;C56.847015,266.583496 59.308113,289.489807 65.772720,312.022736 &#xA;&#x9;C74.604904,342.808044 90.108688,369.669891 111.669136,393.062866 &#xA;&#x9;C130.517166,413.512817 153.029495,428.898102 178.601227,439.934204 &#xA;&#x9;C199.536606,448.969360 221.346649,454.615997 244.011765,455.757568 &#xA;&#x9;C257.168610,456.420227 270.471039,455.005920 283.663483,453.963379 &#xA;&#x9;C304.816254,452.291809 324.535339,445.231628 343.436951,436.107025 &#xA;&#x9;C367.324127,424.575775 388.312317,409.069061 405.781616,388.850952 &#xA;&#x9;C416.741669,376.166382 426.298645,362.623169 434.055725,347.795166 &#xA;&#x9;C443.761414,329.242310 449.837128,309.476288 453.875641,288.116486 &#xA;z"/>
  <path fill="#000000" stroke="none" d="&#xA;M453.708923,288.523804 &#xA;&#x9;C449.837128,309.476288 443.761414,329.242310 434.055725,347.795166 &#xA;&#x9;C426.298645,362.623169 416.741669,376.166382 405.781616,388.850952 &#xA;&#x9;C388.312317,409.069061 367.324127,424.575775 343.436951,436.107025 &#xA;&#x9;C324.535339,445.231628 304.816254,452.291809 283.663483,453.963379 &#xA;&#x9;C270.471039,455.005920 257.168610,456.420227 244.011765,455.757568 &#xA;&#x9;C221.346649,454.615997 199.536606,448.969360 178.601227,439.934204 &#xA;&#x9;C153.029495,428.898102 130.517166,413.512817 111.669136,393.062866 &#xA;&#x9;C90.108688,369.669891 74.604904,342.808044 65.772720,312.022736 &#xA;&#x9;C59.308113,289.489807 56.847015,266.583496 58.174019,243.389755 &#xA;&#x9;C59.392708,222.089096 64.432518,201.433472 72.708374,181.670303 &#xA;&#x9;C81.123062,161.575607 92.300995,143.263351 106.620781,126.727409 &#xA;&#x9;C125.447189,104.987366 147.844742,88.140244 173.838867,76.136559 &#xA;&#x9;C191.393555,68.030052 209.705475,61.883732 229.074753,60.087811 &#xA;&#x9;C242.576218,58.835945 256.237183,57.535889 269.720551,58.253929 &#xA;&#x9;C292.355743,59.459343 314.189331,64.960197 335.163147,73.947250 &#xA;&#x9;C352.925690,81.558342 369.135010,91.612450 384.025299,103.719322 &#xA;&#x9;C400.702515,117.279060 414.418884,133.623672 425.874329,151.778687 &#xA;&#x9;C437.408508,170.058426 445.662415,189.831421 450.315918,210.917816 &#xA;&#x9;C452.611847,221.321289 453.731079,232.011215 454.915985,242.623657 &#xA;&#x9;C455.704407,249.685074 456.088531,256.850464 455.889038,263.947815 &#xA;&#x9;C455.662201,272.016510 454.583832,280.061310 453.708923,288.523804 &#xA;M310.027405,244.735748 &#xA;&#x9;C310.339905,251.345856 311.318054,258.004669 310.838654,264.556824 &#xA;&#x9;C309.465210,283.326965 297.471130,298.151123 279.419403,301.722107 &#xA;&#x9;C267.990723,303.983002 256.071320,303.763306 243.744537,304.704010 &#xA;&#x9;C243.744537,288.568237 243.744537,273.695465 243.744537,258.811462 &#xA;&#x9;C213.833969,258.811462 184.473602,258.811462 155.166199,258.811462 &#xA;&#x9;C155.166199,273.959900 155.166199,288.717529 155.166199,303.939545 &#xA;&#x9;C169.688889,303.939545 183.930420,303.939545 198.548157,303.939545 &#xA;&#x9;C198.548157,319.166290 198.548157,333.929138 198.548157,348.583923 &#xA;&#x9;C222.727661,348.583923 246.528534,349.005554 270.306335,348.446503 &#xA;&#x9;C288.350311,348.022247 305.442017,343.171204 320.677765,333.130615 &#xA;&#x9;C344.224762,317.612732 356.336487,295.072754 358.856232,267.500763 &#xA;&#x9;C361.174744,242.130585 357.089600,217.866089 340.570801,197.423431 &#xA;&#x9;C322.260010,174.763077 297.240540,165.733032 268.930115,165.096237 &#xA;&#x9;C246.783035,164.598068 224.615784,164.992386 202.457489,165.006912 &#xA;&#x9;C201.198624,165.007736 199.939850,165.160416 198.777466,165.236160 &#xA;&#x9;C198.777466,180.375183 198.777466,195.095016 198.777466,210.003632 &#xA;&#x9;C200.957672,210.003632 202.783646,210.000809 204.609619,210.004059 &#xA;&#x9;C225.767120,210.041733 246.934677,209.686722 268.079346,210.227036 &#xA;&#x9;C290.151428,210.791016 305.277710,223.384109 310.027405,244.735748 &#xA;z"/>
  <path fill="#FDFDFD" stroke="none" d="&#xA;M309.977448,244.313690 &#xA;&#x9;C305.277710,223.384109 290.151428,210.791016 268.079346,210.227036 &#xA;&#x9;C246.934677,209.686722 225.767120,210.041733 204.609619,210.004059 &#xA;&#x9;C202.783646,210.000809 200.957672,210.003632 198.777466,210.003632 &#xA;&#x9;C198.777466,195.095016 198.777466,180.375183 198.777466,165.236160 &#xA;&#x9;C199.939850,165.160416 201.198624,165.007736 202.457489,165.006912 &#xA;&#x9;C224.615784,164.992386 246.783035,164.598068 268.930115,165.096237 &#xA;&#x9;C297.240540,165.733032 322.260010,174.763077 340.570801,197.423431 &#xA;&#x9;C357.089600,217.866089 361.174744,242.130585 358.856232,267.500763 &#xA;&#x9;C356.336487,295.072754 344.224762,317.612732 320.677765,333.130615 &#xA;&#x9;C305.442017,343.171204 288.350311,348.022247 270.306335,348.446503 &#xA;&#x9;C246.528534,349.005554 222.727661,348.583923 198.548157,348.583923 &#xA;&#x9;C198.548157,333.929138 198.548157,319.166290 198.548157,303.939545 &#xA;&#x9;C183.930420,303.939545 169.688889,303.939545 155.166199,303.939545 &#xA;&#x9;C155.166199,288.717529 155.166199,273.959900 155.166199,258.811462 &#xA;&#x9;C184.473602,258.811462 213.833969,258.811462 243.744537,258.811462 &#xA;&#x9;C243.744537,273.695465 243.744537,288.568237 243.744537,304.704010 &#xA;&#x9;C256.071320,303.763306 267.990723,303.983002 279.419403,301.722107 &#xA;&#x9;C297.471130,298.151123 309.465210,283.326965 310.838654,264.556824 &#xA;&#x9;C311.318054,258.004669 310.339905,251.345856 309.977448,244.313690 &#xA;z"/>
</svg>